<svg xmlns="http://www.w3.org/2000/svg" viewBox="0 0 420 120" fill="none">
  <!-- Heart + pin icon -->
  <g transform="translate(10, 8)">
    <!-- Heart shape -->
    <path d="M49 22 C49 14 42 8 34 8 C27 8 21 13 19 20 C17 13 11 8 4 8 C-4 8 -11 14 -11 22 C-11 30 -4 38 4 44 L19 58 L34 44 C42 38 49 30 49 22Z"
      fill="#333333" transform="translate(10, 0)"/>
    <!-- White inner heart -->
    <path d="M37 22 C37 17 33 13 28 13 C24 13 21 16 20 20 C19 16 16 13 12 13 C7 13 3 17 3 22 C3 27 7 31 12 36 L20 44 L28 36 C33 31 37 27 37 22Z"
      fill="#f1e8de" transform="translate(10, 0)"/>
    <!-- Stem/stand -->
    <rect x="26" y="58" width="6" height="18" rx="3" fill="#333333"/>
    <rect x="14" y="74" width="30" height="5" rx="2.5" fill="#333333"/>
  </g>
  <!-- HAPPY 2U text -->
  <text x="105" y="82" font-family="'Arial Black', 'Helvetica Neue', Arial, sans-serif" font-weight="900" font-size="52" fill="#333333" letter-spacing="1">HAPPY 2U</text>
  <!-- Registered trademark -->
  <text x="392" y="52" font-family="Arial, sans-serif" font-weight="400" font-size="20" fill="#333333">®</text>
</svg>
